<svg width="20" height="20" viewBox="0 0 20 20" fill="none" xmlns="http://www.w3.org/2000/svg">
<path d="M14.4286 7.34492e-07C14.8254 7.34492e-07 15.1627 0.152568 15.4405 0.457701C15.7183 0.762835 15.8571 1.13335 15.8571 1.56926L15.8571 12.7633C15.8571 12.9551 15.8214 13.1469 15.75 13.3387C15.6786 13.5305 15.5794 13.6961 15.4524 13.8356L10.5238 19.5373C10.3016 19.7814 10.0357 19.9296 9.72619 19.9819C9.41667 20.0342 9.12698 19.9732 8.85714 19.7988C8.5873 19.6245 8.38492 19.3803 8.25 19.0665C8.11508 18.7526 8.07937 18.4301 8.14286 18.0988L9.04762 13.391H1.42857C1.06349 13.391 0.734127 13.2297 0.440476 12.9072C0.146825 12.5846 -5.96046e-08 12.2228 -5.96046e-08 11.8217V9.6771C-5.96046e-08 9.4853 0.0198412 9.26299 0.0595238 9.01016C0.0992063 8.75734 0.15873 8.53502 0.238095 8.34323L3 1.33387C3.14286 0.96771 3.37698 0.653858 3.70238 0.392315C4.02778 0.130772 4.37302 7.34492e-07 4.7381 7.34492e-07L14.4286 7.34492e-07ZM18.6429 7.34492e-07C19.0079 7.34492e-07 19.3254 0.148208 19.5952 0.444623C19.8651 0.741039 20 1.08976 20 1.4908V11.9002C20 12.3012 19.8651 12.65 19.5952 12.9464C19.3254 13.2428 19.0079 13.391 18.6429 13.391C18.2778 13.391 17.9603 13.2428 17.6905 12.9464C17.4206 12.65 17.2857 12.3012 17.2857 11.9002L17.2857 1.4908C17.2857 1.08976 17.4206 0.741039 17.6905 0.444623C17.9603 0.148208 18.2778 7.34492e-07 18.6429 7.34492e-07Z" fill="#252B42"/>
</svg>
