<svg width="20" height="20" viewBox="0 0 20 20" fill="none" xmlns="http://www.w3.org/2000/svg">
<path d="M18.5714 6.60899C18.9365 6.60899 19.2659 6.77028 19.5595 7.09285C19.8532 7.41542 20 7.77722 20 8.17825V10.3229C20 10.5147 19.9802 10.737 19.9405 10.9898C19.9008 11.2427 19.8413 11.465 19.7619 11.6568L17 18.6661C16.8571 19.0323 16.623 19.3461 16.2976 19.6077C15.9722 19.8692 15.627 20 15.2619 20L5.57143 20C5.1746 20 4.8373 19.8474 4.55952 19.5423C4.28175 19.2372 4.14286 18.8666 4.14286 18.4307L4.14286 7.2367C4.14286 7.0449 4.17857 6.8531 4.25 6.6613C4.32143 6.4695 4.42063 6.30386 4.54762 6.16437L9.47619 0.462732C9.69841 0.218625 9.96429 0.0704151 10.2738 0.0181065C10.5833 -0.0342022 10.873 0.026827 11.1429 0.201189C11.4127 0.375551 11.6151 0.619656 11.75 0.933508C11.8849 1.24736 11.9206 1.56993 11.8571 1.90122L10.9524 6.60899L18.5714 6.60899ZM1.35714 20C0.992062 20 0.674602 19.8518 0.40476 19.5554C0.134919 19.259 0 18.9102 0 18.5092L0 8.09979C0 7.69876 0.134919 7.35003 0.40476 7.05362C0.674602 6.7572 0.992062 6.60899 1.35714 6.60899C1.72222 6.60899 2.03968 6.7572 2.30952 7.05362C2.57936 7.35003 2.71429 7.69876 2.71429 8.09979L2.71429 18.5092C2.71429 18.9102 2.57936 19.259 2.30952 19.5554C2.03968 19.8518 1.72222 20 1.35714 20Z" fill="#2C5592"/>
</svg>
