<svg width="2304" height="1564" viewBox="0 0 2304 1564" fill="none" xmlns="http://www.w3.org/2000/svg">
<path fill-rule="evenodd" clip-rule="evenodd" d="M2116.08 107.64C2116.08 167.088 2067.94 215.28 2008.55 215.28L1488.85 215.28C1429.46 215.28 1381.32 167.088 1381.32 107.64L1381.32 8.99529e-05L2008.55 0.00011737C2067.94 0.000119966 2116.08 48.1922 2116.08 107.64Z" fill="#F2F2F2"/>
<path fill-rule="evenodd" clip-rule="evenodd" d="M1793.16 752.31C1793.16 811.758 1745.02 859.95 1685.63 859.95L732.18 859.95C672.792 859.95 624.648 811.758 624.648 752.31C624.648 712.678 600.752 676.798 552.96 644.67L1685.63 644.67C1745.02 644.67 1793.16 692.862 1793.16 752.31Z" fill="#23A6F0"/>
<path fill-rule="evenodd" clip-rule="evenodd" d="M2265.84 752.31C2265.84 811.758 2217.68 859.95 2158.27 859.95L1204.51 859.95C1145.1 859.95 1096.94 811.758 1096.94 752.31C1096.94 712.678 1061.08 676.798 989.37 644.67L2158.27 644.67C2217.68 644.67 2265.84 692.862 2265.84 752.31Z" fill="#F2F2F2"/>
<path fill-rule="evenodd" clip-rule="evenodd" d="M950.76 107.64C950.76 167.088 902.619 215.28 843.234 215.28L323.526 215.28C264.141 215.28 216 167.088 216 107.64L216 2.89178e-05L843.234 5.63351e-05C902.619 5.89308e-05 950.76 48.1921 950.76 107.64Z" fill="#131726"/>
<path fill-rule="evenodd" clip-rule="evenodd" d="M952.515 644.67L952.515 215.28L1962.5 215.28L1962.5 390.614L1968.66 390.614L1968.66 644.67L952.515 644.67ZM949.005 644.67L917.415 644.67L917.415 215.28L949.005 215.28L949.005 644.67ZM911.565 644.67L882.9 644.67L882.9 215.28L911.565 215.28L911.565 644.67ZM873.54 644.67L848.385 644.67L848.385 215.28L873.54 215.28L873.54 644.67ZM835.515 644.67L814.455 644.67L814.455 215.28L835.515 215.28L835.515 644.67ZM799.245 644.67L778.77 644.67L778.77 215.28L799.245 215.28L799.245 644.67ZM760.05 644.67L746.048 644.67C745.84 644.67 745.633 644.669 745.425 644.668L745.425 215.282C745.633 215.281 745.84 215.28 746.048 215.28L760.05 215.28L760.05 644.67ZM723.195 642.247C718.799 641.3 714.503 640.086 710.325 638.621L710.325 221.329C714.503 219.864 718.799 218.65 723.195 217.702L723.195 642.247ZM685.755 626.277C682.291 623.938 678.971 621.404 675.81 618.69L675.81 241.259C678.971 238.546 682.291 236.011 685.755 233.673L685.755 626.277ZM647.73 581.163C641.715 567.777 638.37 552.939 638.37 537.322L638.37 322.627C638.37 307.011 641.715 292.172 647.73 278.787L647.73 581.163L647.73 581.163Z" fill="#7A4865"/>
<mask id="mask0_502_469" style="mask-type:alpha" maskUnits="userSpaceOnUse" x="1303" y="215" width="960" height="430">
<path d="M2262.54 215.29L2262.54 644.68L1862.96 644.68C1803.59 644.68 1755.46 596.619 1755.46 537.333C1755.46 478.046 1707.32 429.985 1647.95 429.985L1518.16 429.985C1399.41 429.985 1303.14 333.863 1303.14 215.29L2262.54 215.29Z" fill="white"/>
</mask>
<g mask="url(#mask0_502_469)">
<path d="M2262.54 215.29L2262.54 644.68L1862.96 644.68C1803.59 644.68 1755.46 596.619 1755.46 537.333C1755.46 478.046 1707.32 429.985 1647.95 429.985L1518.16 429.985C1399.41 429.985 1303.14 333.863 1303.14 215.29L2262.54 215.29Z" fill="#F6CB51"/>
</g>
<path fill-rule="evenodd" clip-rule="evenodd" d="M1381.49 1290.51L763.585 1290.51C704.177 1290.51 656.018 1242.32 656.018 1182.87C656.018 1143.24 620.162 1107.36 548.45 1075.23L1473.2 1075.23C1421.31 1082.93 1381.49 1127.66 1381.49 1181.7L1381.49 1290.51Z" fill="#3D2C42"/>
<mask id="mask1_502_469" style="mask-type:alpha" maskUnits="userSpaceOnUse" x="433" y="1075" width="735" height="216">
<path d="M1167.21 1182.76C1167.21 1242.15 1119.11 1290.3 1059.77 1290.3L540.504 1290.3C481.169 1290.3 433.068 1242.15 433.068 1182.76C433.068 1123.37 481.169 1075.23 540.504 1075.23L1059.77 1075.23C1119.11 1075.23 1167.21 1123.37 1167.21 1182.76Z" fill="white"/>
</mask>
<g mask="url(#mask1_502_469)">
<path d="M1167.21 1182.76C1167.21 1242.15 1119.11 1290.3 1059.77 1290.3L540.504 1290.3C481.169 1290.3 433.068 1242.15 433.068 1182.76C433.068 1123.37 481.169 1075.23 540.504 1075.23L1059.77 1075.23C1119.11 1075.23 1167.21 1123.37 1167.21 1182.76Z" fill="#131726"/>
</g>
<path fill-rule="evenodd" clip-rule="evenodd" d="M1097.31 106.47C1097.31 96.1312 1105.75 87.75 1116.16 87.75C1126.57 87.75 1135.01 96.1312 1135.01 106.47C1135.01 116.809 1126.57 125.19 1116.16 125.19C1105.75 125.19 1097.31 116.809 1097.31 106.47ZM1005.75 106.47C1005.75 96.1312 1014.19 87.75 1024.6 87.75C1035.01 87.75 1043.45 96.1312 1043.45 106.47C1043.45 116.809 1035.01 125.19 1024.6 125.19C1014.19 125.19 1005.75 116.809 1005.75 106.47ZM1280.44 106.47C1280.44 96.1312 1288.88 87.75 1299.29 87.75C1309.7 87.75 1318.14 96.1312 1318.14 106.47C1318.14 116.809 1309.7 125.19 1299.29 125.19C1288.88 125.19 1280.44 116.809 1280.44 106.47ZM1188.88 106.47C1188.88 96.1312 1197.32 87.75 1207.73 87.75C1218.14 87.75 1226.58 96.1312 1226.58 106.47C1226.58 116.809 1218.14 125.19 1207.73 125.19C1197.32 125.19 1188.88 116.809 1188.88 106.47Z" fill="#23A6F0"/>
<mask id="mask2_502_469" style="mask-type:alpha" maskUnits="userSpaceOnUse" x="1820" y="656" width="409" height="410">
<path d="M1820.14 860.815C1820.14 973.727 1911.64 1065.26 2024.52 1065.26C2137.4 1065.26 2228.9 973.727 2228.9 860.815C2228.9 747.903 2137.4 656.37 2024.52 656.37C1911.64 656.37 1820.14 747.903 1820.14 860.815Z" fill="white"/>
</mask>
<g mask="url(#mask2_502_469)">
<path d="M1820.14 860.815C1820.14 973.727 1911.64 1065.26 2024.52 1065.26C2137.4 1065.26 2228.9 973.727 2228.9 860.815C2228.9 747.903 2137.4 656.37 2024.52 656.37C1911.64 656.37 1820.14 747.903 1820.14 860.815Z" fill="#23A6F0"/>
<path fill-rule="evenodd" clip-rule="evenodd" d="M2243.25 1291.22L1021.9 1291.22C962.469 1291.22 914.294 1243.05 914.294 1183.62L914.294 968.417C914.294 908.99 962.469 860.815 1021.9 860.815L2243.25 860.815L2243.25 1291.22Z" fill="#F2F2F2"/>
<path d="M2026.31 1065.26L2026.31 860.815L1678.51 860.815L1678.51 1065.26L2026.31 1065.26Z" fill="#7A4865"/>
</g>
<path fill-rule="evenodd" clip-rule="evenodd" d="M988.777 1557.86C988.777 1554.95 991.121 1552.6 994.011 1552.6C996.901 1552.6 999.245 1554.95 999.245 1557.86C999.245 1560.76 996.901 1563.12 994.011 1563.12C991.121 1563.12 988.777 1560.76 988.777 1557.86ZM1025.41 1557.86C1025.41 1554.95 1027.76 1552.6 1030.65 1552.6C1033.54 1552.6 1035.88 1554.95 1035.88 1557.86C1035.88 1560.76 1033.54 1563.12 1030.65 1563.12C1027.76 1563.12 1025.41 1560.76 1025.41 1557.86ZM1062.05 1557.86C1062.05 1554.95 1064.39 1552.6 1067.28 1552.6C1070.17 1552.6 1072.51 1554.95 1072.51 1557.86C1072.51 1560.76 1070.17 1563.12 1067.28 1563.12C1064.39 1563.12 1062.05 1560.76 1062.05 1557.86ZM1098.68 1557.86C1098.68 1554.95 1101.03 1552.6 1103.92 1552.6C1106.81 1552.6 1109.15 1554.95 1109.15 1557.86C1109.15 1560.76 1106.81 1563.12 1103.92 1563.12C1101.03 1563.12 1098.68 1560.76 1098.68 1557.86ZM1135.32 1557.86C1135.32 1554.95 1137.66 1552.6 1140.55 1552.6C1143.44 1552.6 1145.78 1554.95 1145.78 1557.86C1145.78 1560.76 1143.44 1563.12 1140.55 1563.12C1137.66 1563.12 1135.32 1560.76 1135.32 1557.86ZM1171.95 1557.86C1171.95 1554.95 1174.3 1552.6 1177.19 1552.6C1180.08 1552.6 1182.42 1554.95 1182.42 1557.86C1182.42 1560.76 1180.08 1563.12 1177.19 1563.12C1174.3 1563.12 1171.95 1560.76 1171.95 1557.86ZM988.777 1523.29C988.777 1520.39 991.121 1518.03 994.011 1518.03C996.901 1518.03 999.245 1520.39 999.245 1523.29C999.245 1526.2 996.901 1528.55 994.011 1528.55C991.121 1528.55 988.777 1526.2 988.777 1523.29ZM1025.41 1523.29C1025.41 1520.39 1027.76 1518.03 1030.65 1518.03C1033.54 1518.03 1035.88 1520.39 1035.88 1523.29C1035.88 1526.2 1033.54 1528.55 1030.65 1528.55C1027.76 1528.55 1025.41 1526.2 1025.41 1523.29ZM1062.05 1523.29C1062.05 1520.39 1064.39 1518.03 1067.28 1518.03C1070.17 1518.03 1072.51 1520.39 1072.51 1523.29C1072.51 1526.2 1070.17 1528.55 1067.28 1528.55C1064.39 1528.55 1062.05 1526.2 1062.05 1523.29ZM1098.68 1523.29C1098.68 1520.39 1101.03 1518.03 1103.92 1518.03C1106.81 1518.03 1109.15 1520.39 1109.15 1523.29C1109.15 1526.2 1106.81 1528.55 1103.92 1528.55C1101.03 1528.55 1098.68 1526.2 1098.68 1523.29ZM1135.32 1523.29C1135.32 1520.39 1137.66 1518.03 1140.55 1518.03C1143.44 1518.03 1145.78 1520.39 1145.78 1523.29C1145.78 1526.2 1143.44 1528.55 1140.55 1528.55C1137.66 1528.55 1135.32 1526.2 1135.32 1523.29ZM1171.95 1523.29C1171.95 1520.39 1174.3 1518.03 1177.19 1518.03C1180.08 1518.03 1182.42 1520.39 1182.42 1523.29C1182.42 1526.2 1180.08 1528.55 1177.19 1528.55C1174.3 1528.55 1171.95 1526.2 1171.95 1523.29ZM988.777 1488.73C988.777 1485.82 991.121 1483.46 994.011 1483.47C996.901 1483.47 999.245 1485.82 999.245 1488.73C999.245 1491.63 996.901 1493.99 994.011 1493.99C991.121 1493.99 988.777 1491.63 988.777 1488.73ZM1025.41 1488.73C1025.41 1485.82 1027.76 1483.47 1030.65 1483.47C1033.54 1483.47 1035.88 1485.82 1035.88 1488.73C1035.88 1491.63 1033.54 1493.99 1030.65 1493.99C1027.76 1493.99 1025.41 1491.63 1025.41 1488.73ZM1062.05 1488.73C1062.05 1485.82 1064.39 1483.47 1067.28 1483.47C1070.17 1483.47 1072.51 1485.82 1072.51 1488.73C1072.51 1491.63 1070.17 1493.99 1067.28 1493.99C1064.39 1493.99 1062.05 1491.63 1062.05 1488.73ZM1098.68 1488.73C1098.68 1485.82 1101.03 1483.47 1103.92 1483.47C1106.81 1483.47 1109.15 1485.82 1109.15 1488.73C1109.15 1491.63 1106.81 1493.99 1103.92 1493.99C1101.03 1493.99 1098.68 1491.63 1098.68 1488.73ZM1135.32 1488.73C1135.32 1485.82 1137.66 1483.47 1140.55 1483.47C1143.44 1483.47 1145.78 1485.82 1145.78 1488.73C1145.78 1491.63 1143.44 1493.99 1140.55 1493.99C1137.66 1493.99 1135.32 1491.63 1135.32 1488.73ZM1171.95 1488.73C1171.95 1485.82 1174.3 1483.47 1177.19 1483.47C1180.08 1483.47 1182.42 1485.82 1182.42 1488.73C1182.42 1491.63 1180.08 1493.99 1177.19 1493.99C1174.3 1493.99 1171.95 1491.63 1171.95 1488.73ZM988.777 1452.65C988.777 1449.75 991.121 1447.39 994.011 1447.39C996.901 1447.39 999.245 1449.75 999.245 1452.65C999.245 1455.56 996.901 1457.92 994.011 1457.92C991.121 1457.92 988.777 1455.56 988.777 1452.65ZM1025.41 1452.65C1025.41 1449.75 1027.76 1447.39 1030.65 1447.39C1033.54 1447.39 1035.88 1449.75 1035.88 1452.65C1035.88 1455.56 1033.54 1457.92 1030.65 1457.92C1027.76 1457.92 1025.41 1455.56 1025.41 1452.65ZM1062.05 1452.65C1062.05 1449.75 1064.39 1447.39 1067.28 1447.39C1070.17 1447.39 1072.51 1449.75 1072.51 1452.65C1072.51 1455.56 1070.17 1457.92 1067.28 1457.92C1064.39 1457.92 1062.05 1455.56 1062.05 1452.65ZM1098.68 1452.65C1098.68 1449.75 1101.03 1447.39 1103.92 1447.39C1106.81 1447.39 1109.15 1449.75 1109.15 1452.65C1109.15 1455.56 1106.81 1457.92 1103.92 1457.92C1101.03 1457.92 1098.68 1455.56 1098.68 1452.65ZM1135.32 1452.65C1135.32 1449.75 1137.66 1447.39 1140.55 1447.39C1143.44 1447.39 1145.78 1449.75 1145.78 1452.65C1145.78 1455.56 1143.44 1457.92 1140.55 1457.92C1137.66 1457.92 1135.32 1455.56 1135.32 1452.65ZM1171.95 1452.65C1171.95 1449.75 1174.3 1447.39 1177.19 1447.39C1180.08 1447.39 1182.42 1449.75 1182.42 1452.65C1182.42 1455.56 1180.08 1457.92 1177.19 1457.92C1174.3 1457.92 1171.95 1455.56 1171.95 1452.65ZM988.777 1418.09C988.777 1415.18 991.121 1412.83 994.011 1412.83C996.901 1412.83 999.245 1415.18 999.245 1418.09C999.245 1420.99 996.901 1423.35 994.011 1423.35C991.121 1423.35 988.777 1420.99 988.777 1418.09ZM1025.41 1418.09C1025.41 1415.18 1027.76 1412.83 1030.65 1412.83C1033.54 1412.83 1035.88 1415.18 1035.88 1418.09C1035.88 1420.99 1033.54 1423.35 1030.65 1423.35C1027.76 1423.35 1025.41 1420.99 1025.41 1418.09ZM1062.05 1418.09C1062.05 1415.18 1064.39 1412.83 1067.28 1412.83C1070.17 1412.83 1072.51 1415.18 1072.51 1418.09C1072.51 1420.99 1070.17 1423.35 1067.28 1423.35C1064.39 1423.35 1062.05 1420.99 1062.05 1418.09ZM1098.68 1418.09C1098.68 1415.18 1101.03 1412.83 1103.92 1412.83C1106.81 1412.83 1109.15 1415.18 1109.15 1418.09C1109.15 1420.99 1106.81 1423.35 1103.92 1423.35C1101.03 1423.35 1098.68 1420.99 1098.68 1418.09ZM1135.32 1418.09C1135.32 1415.18 1137.66 1412.83 1140.55 1412.83C1143.44 1412.83 1145.78 1415.18 1145.78 1418.09C1145.78 1420.99 1143.44 1423.35 1140.55 1423.35C1137.66 1423.35 1135.32 1420.99 1135.32 1418.09ZM1171.95 1418.09C1171.95 1415.18 1174.3 1412.83 1177.19 1412.83C1180.08 1412.83 1182.42 1415.18 1182.42 1418.09C1182.42 1420.99 1180.08 1423.35 1177.19 1423.35C1174.3 1423.35 1171.95 1420.99 1171.95 1418.09ZM988.777 1383.52C988.777 1380.62 991.121 1378.26 994.011 1378.26C996.901 1378.26 999.245 1380.62 999.245 1383.52C999.245 1386.43 996.901 1388.78 994.011 1388.78C991.121 1388.78 988.777 1386.43 988.777 1383.52ZM1025.41 1383.52C1025.41 1380.62 1027.76 1378.26 1030.65 1378.26C1033.54 1378.26 1035.88 1380.62 1035.88 1383.52C1035.88 1386.43 1033.54 1388.78 1030.65 1388.78C1027.76 1388.78 1025.41 1386.43 1025.41 1383.52ZM1062.05 1383.52C1062.05 1380.62 1064.39 1378.26 1067.28 1378.26C1070.17 1378.26 1072.51 1380.62 1072.51 1383.52C1072.51 1386.43 1070.17 1388.78 1067.28 1388.78C1064.39 1388.78 1062.05 1386.43 1062.05 1383.52ZM1098.68 1383.52C1098.68 1380.62 1101.03 1378.26 1103.92 1378.26C1106.81 1378.26 1109.15 1380.62 1109.15 1383.52C1109.15 1386.43 1106.81 1388.78 1103.92 1388.78C1101.03 1388.78 1098.68 1386.43 1098.68 1383.52ZM1135.32 1383.52C1135.32 1380.62 1137.66 1378.26 1140.55 1378.26C1143.44 1378.26 1145.78 1380.62 1145.78 1383.52C1145.78 1386.43 1143.44 1388.78 1140.55 1388.78C1137.66 1388.78 1135.32 1386.43 1135.32 1383.52ZM1171.95 1383.52C1171.95 1380.62 1174.3 1378.26 1177.19 1378.26C1180.08 1378.26 1182.42 1380.62 1182.42 1383.52C1182.42 1386.43 1180.08 1388.78 1177.19 1388.78C1174.3 1388.78 1171.95 1386.43 1171.95 1383.52ZM768.24 1557.86C768.24 1554.95 770.583 1552.6 773.474 1552.6C776.364 1552.6 778.707 1554.95 778.707 1557.86C778.707 1560.76 776.364 1563.12 773.474 1563.12C770.583 1563.12 768.24 1560.76 768.24 1557.86ZM804.875 1557.86C804.875 1554.95 807.218 1552.6 810.109 1552.6C812.999 1552.6 815.342 1554.95 815.342 1557.86C815.342 1560.76 812.999 1563.12 810.109 1563.12C807.218 1563.12 804.875 1560.76 804.875 1557.86ZM841.51 1557.86C841.51 1554.95 843.853 1552.6 846.744 1552.6C849.634 1552.6 851.977 1554.95 851.977 1557.86C851.977 1560.76 849.634 1563.12 846.744 1563.12C843.853 1563.12 841.51 1560.76 841.51 1557.86ZM878.145 1557.86C878.145 1554.95 880.488 1552.6 883.379 1552.6C886.269 1552.6 888.612 1554.95 888.612 1557.86C888.612 1560.76 886.269 1563.12 883.379 1563.12C880.488 1563.12 878.145 1560.76 878.145 1557.86ZM914.78 1557.86C914.78 1554.95 917.123 1552.6 920.014 1552.6C922.904 1552.6 925.247 1554.95 925.247 1557.86C925.247 1560.76 922.904 1563.12 920.014 1563.12C917.123 1563.12 914.78 1560.76 914.78 1557.86ZM951.415 1557.86C951.415 1554.95 953.758 1552.6 956.649 1552.6C959.539 1552.6 961.882 1554.95 961.882 1557.86C961.882 1560.76 959.539 1563.12 956.649 1563.12C953.758 1563.12 951.415 1560.76 951.415 1557.86ZM768.24 1523.29C768.24 1520.39 770.583 1518.03 773.474 1518.03C776.364 1518.03 778.707 1520.39 778.707 1523.29C778.707 1526.2 776.364 1528.55 773.474 1528.55C770.583 1528.55 768.24 1526.2 768.24 1523.29ZM804.875 1523.29C804.875 1520.39 807.218 1518.03 810.109 1518.03C812.999 1518.03 815.342 1520.39 815.342 1523.29C815.342 1526.2 812.999 1528.55 810.109 1528.55C807.218 1528.55 804.875 1526.2 804.875 1523.29ZM841.51 1523.29C841.51 1520.39 843.853 1518.03 846.744 1518.03C849.634 1518.03 851.977 1520.39 851.977 1523.29C851.977 1526.2 849.634 1528.55 846.744 1528.55C843.853 1528.55 841.51 1526.2 841.51 1523.29ZM878.145 1523.29C878.145 1520.39 880.488 1518.03 883.379 1518.03C886.269 1518.03 888.612 1520.39 888.612 1523.29C888.612 1526.2 886.269 1528.55 883.379 1528.55C880.488 1528.55 878.145 1526.2 878.145 1523.29ZM914.78 1523.29C914.78 1520.39 917.123 1518.03 920.014 1518.03C922.904 1518.03 925.247 1520.39 925.247 1523.29C925.247 1526.2 922.904 1528.55 920.014 1528.55C917.123 1528.55 914.78 1526.2 914.78 1523.29ZM951.415 1523.29C951.415 1520.39 953.758 1518.03 956.649 1518.03C959.539 1518.03 961.882 1520.39 961.882 1523.29C961.882 1526.2 959.539 1528.55 956.649 1528.55C953.758 1528.55 951.415 1526.2 951.415 1523.29ZM768.24 1488.73C768.24 1485.82 770.583 1483.46 773.474 1483.46C776.364 1483.46 778.707 1485.82 778.707 1488.73C778.707 1491.63 776.364 1493.99 773.474 1493.99C770.583 1493.99 768.24 1491.63 768.24 1488.73ZM804.875 1488.73C804.875 1485.82 807.218 1483.46 810.109 1483.46C812.999 1483.46 815.342 1485.82 815.342 1488.73C815.342 1491.63 812.999 1493.99 810.109 1493.99C807.218 1493.99 804.875 1491.63 804.875 1488.73ZM841.51 1488.73C841.51 1485.82 843.853 1483.46 846.744 1483.46C849.634 1483.46 851.977 1485.82 851.977 1488.73C851.977 1491.63 849.634 1493.99 846.744 1493.99C843.853 1493.99 841.51 1491.63 841.51 1488.73ZM878.145 1488.73C878.145 1485.82 880.488 1483.46 883.379 1483.46C886.269 1483.46 888.612 1485.82 888.612 1488.73C888.612 1491.63 886.269 1493.99 883.379 1493.99C880.488 1493.99 878.145 1491.63 878.145 1488.73ZM914.78 1488.73C914.78 1485.82 917.123 1483.46 920.014 1483.46C922.904 1483.46 925.247 1485.82 925.247 1488.73C925.247 1491.63 922.904 1493.99 920.014 1493.99C917.123 1493.99 914.78 1491.63 914.78 1488.73ZM951.415 1488.73C951.415 1485.82 953.758 1483.46 956.649 1483.46C959.539 1483.46 961.882 1485.82 961.882 1488.73C961.882 1491.63 959.539 1493.99 956.649 1493.99C953.758 1493.99 951.415 1491.63 951.415 1488.73ZM768.24 1452.65C768.24 1449.75 770.583 1447.39 773.474 1447.39C776.364 1447.39 778.707 1449.75 778.707 1452.65C778.707 1455.56 776.364 1457.92 773.474 1457.92C770.583 1457.92 768.24 1455.56 768.24 1452.65ZM804.875 1452.65C804.875 1449.75 807.218 1447.39 810.109 1447.39C812.999 1447.39 815.342 1449.75 815.342 1452.65C815.342 1455.56 812.999 1457.92 810.109 1457.92C807.218 1457.92 804.875 1455.56 804.875 1452.65ZM841.51 1452.65C841.51 1449.75 843.853 1447.39 846.744 1447.39C849.634 1447.39 851.977 1449.75 851.977 1452.65C851.977 1455.56 849.634 1457.92 846.744 1457.92C843.853 1457.92 841.51 1455.56 841.51 1452.65ZM878.145 1452.65C878.145 1449.75 880.488 1447.39 883.379 1447.39C886.269 1447.39 888.612 1449.75 888.612 1452.65C888.612 1455.56 886.269 1457.92 883.379 1457.92C880.488 1457.92 878.145 1455.56 878.145 1452.65ZM914.78 1452.65C914.78 1449.75 917.123 1447.39 920.014 1447.39C922.904 1447.39 925.247 1449.75 925.247 1452.65C925.247 1455.56 922.904 1457.92 920.014 1457.92C917.123 1457.92 914.78 1455.56 914.78 1452.65ZM951.415 1452.65C951.415 1449.75 953.758 1447.39 956.649 1447.39C959.539 1447.39 961.882 1449.75 961.882 1452.65C961.882 1455.56 959.539 1457.92 956.649 1457.92C953.758 1457.92 951.415 1455.56 951.415 1452.65ZM768.24 1418.09C768.24 1415.18 770.583 1412.83 773.474 1412.83C776.364 1412.83 778.707 1415.18 778.707 1418.09C778.707 1420.99 776.364 1423.35 773.474 1423.35C770.583 1423.35 768.24 1420.99 768.24 1418.09ZM804.875 1418.09C804.875 1415.18 807.218 1412.83 810.109 1412.83C812.999 1412.83 815.342 1415.18 815.342 1418.09C815.342 1420.99 812.999 1423.35 810.109 1423.35C807.218 1423.35 804.875 1420.99 804.875 1418.09ZM841.51 1418.09C841.51 1415.18 843.853 1412.83 846.744 1412.83C849.634 1412.83 851.977 1415.18 851.977 1418.09C851.977 1420.99 849.634 1423.35 846.744 1423.35C843.853 1423.35 841.51 1420.99 841.51 1418.09ZM878.145 1418.09C878.145 1415.18 880.488 1412.83 883.379 1412.83C886.269 1412.83 888.612 1415.18 888.612 1418.09C888.612 1420.99 886.269 1423.35 883.379 1423.35C880.488 1423.35 878.145 1420.99 878.145 1418.09ZM914.78 1418.09C914.78 1415.18 917.123 1412.83 920.014 1412.83C922.904 1412.83 925.247 1415.18 925.247 1418.09C925.247 1420.99 922.904 1423.35 920.014 1423.35C917.123 1423.35 914.78 1420.99 914.78 1418.09ZM951.415 1418.09C951.415 1415.18 953.758 1412.83 956.649 1412.83C959.539 1412.83 961.882 1415.18 961.882 1418.09C961.882 1420.99 959.539 1423.35 956.649 1423.35C953.758 1423.35 951.415 1420.99 951.415 1418.09ZM768.24 1383.52C768.24 1380.62 770.583 1378.26 773.474 1378.26C776.364 1378.26 778.707 1380.62 778.707 1383.52C778.707 1386.43 776.364 1388.78 773.474 1388.78C770.583 1388.78 768.24 1386.43 768.24 1383.52ZM804.875 1383.52C804.875 1380.62 807.218 1378.26 810.109 1378.26C812.999 1378.26 815.342 1380.62 815.342 1383.52C815.342 1386.43 812.999 1388.78 810.109 1388.78C807.218 1388.78 804.875 1386.43 804.875 1383.52ZM841.51 1383.52C841.51 1380.62 843.853 1378.26 846.744 1378.26C849.634 1378.26 851.977 1380.62 851.977 1383.52C851.977 1386.43 849.634 1388.78 846.744 1388.78C843.853 1388.78 841.51 1386.43 841.51 1383.52ZM878.145 1383.52C878.145 1380.62 880.488 1378.26 883.379 1378.26C886.269 1378.26 888.612 1380.62 888.612 1383.52C888.612 1386.43 886.269 1388.78 883.379 1388.78C880.488 1388.78 878.145 1386.43 878.145 1383.52ZM914.78 1383.52C914.78 1380.62 917.123 1378.26 920.014 1378.26C922.904 1378.26 925.247 1380.62 925.247 1383.52C925.247 1386.43 922.904 1388.78 920.014 1388.78C917.123 1388.78 914.78 1386.43 914.78 1383.52ZM951.415 1383.52C951.415 1380.62 953.758 1378.26 956.649 1378.26C959.539 1378.26 961.882 1380.62 961.882 1383.52C961.882 1386.43 959.539 1388.78 956.649 1388.78C953.758 1388.78 951.415 1386.43 951.415 1383.52Z" fill="#131726"/>
<path d="M923.14 706.097C923.14 858.42 1046.58 981.903 1198.86 981.903C1351.14 981.903 1474.58 858.42 1474.58 706.097C1474.58 553.773 1351.14 430.29 1198.86 430.29C1046.58 430.29 923.14 553.773 923.14 706.097Z" fill="#F2F2F2"/>
<path d="M1150.41 796.192C1150.41 862.964 1204.52 917.093 1271.28 917.093C1338.03 917.093 1392.14 862.964 1392.14 796.192C1392.14 729.419 1338.03 675.29 1271.28 675.29C1204.52 675.29 1150.41 729.419 1150.41 796.192Z" fill="#23A6F0"/>
<path d="M1916.14 429.975C1916.14 475.53 1953.07 512.46 1998.62 512.46C2044.18 512.46 2081.11 475.53 2081.11 429.975C2081.11 384.42 2044.18 347.49 1998.62 347.49C1953.07 347.49 1916.14 384.42 1916.14 429.975Z" fill="#7A4865"/>
<path d="M1436.31 1203.35C1436.31 1248.9 1473.24 1285.83 1518.79 1285.83C1564.35 1285.83 1601.28 1248.9 1601.28 1203.35C1601.28 1157.79 1564.35 1120.86 1518.79 1120.86C1473.24 1120.86 1436.31 1157.79 1436.31 1203.35Z" fill="#7A4865"/>
<path d="M1725.3 277.29C1725.3 294.091 1738.92 307.71 1755.72 307.71C1772.52 307.71 1786.14 294.091 1786.14 277.29C1786.14 260.49 1772.52 246.87 1755.72 246.87C1738.92 246.87 1725.3 260.49 1725.3 277.29Z" fill="#7A4865"/>
<path d="M1433.97 308.295C1433.97 330.588 1452.04 348.66 1474.33 348.66C1496.63 348.66 1514.7 330.588 1514.7 308.295C1514.7 286.002 1496.63 267.93 1474.33 267.93C1452.04 267.93 1433.97 286.002 1433.97 308.295Z" fill="#F2F2F2"/>
<g filter="url(#filter0_dddddd_502_469)">
<circle cx="311.376" cy="619.376" r="240.744" stroke="#F8F8FA" stroke-width="109.263"/>
<circle cx="310.813" cy="1095.81" r="39.0405" stroke="#F8F8FA" stroke-width="43.5443"/>
</g>
<g filter="url(#filter1_dd_502_469)">
<rect x="308" y="276" width="1920" height="953" fill="#C4C4C4"/>
</g>
<g clip-path="url(#clip0_502_469)">
<rect width="1920" height="960" transform="translate(308 269)" fill="#F8F8FA"/>
<path fill-rule="evenodd" clip-rule="evenodd" d="M1792.02 751.02C1792.02 810.468 1743.88 858.66 1684.49 858.66L731.04 858.66C671.652 858.66 623.508 810.468 623.508 751.02C623.508 711.388 599.612 675.508 551.82 643.38L1684.49 643.38C1743.88 643.38 1792.02 691.572 1792.02 751.02Z" fill="#23A6F0"/>
<path fill-rule="evenodd" clip-rule="evenodd" d="M2264.7 751.02C2264.7 810.468 2216.54 858.66 2157.13 858.66L1203.37 858.66C1143.96 858.66 1095.8 810.468 1095.8 751.02C1095.8 711.388 1059.94 675.508 988.23 643.38L2157.13 643.38C2216.54 643.38 2264.7 691.572 2264.7 751.02Z" fill="#F2F2F2"/>
<path fill-rule="evenodd" clip-rule="evenodd" d="M951.375 643.38L951.375 213.99L1961.36 213.99L1961.36 389.324L1967.52 389.324L1967.52 643.38L951.375 643.38ZM947.865 643.38L916.275 643.38L916.275 213.99L947.865 213.99L947.865 643.38ZM910.425 643.38L881.76 643.38L881.76 213.99L910.425 213.99L910.425 643.38ZM872.4 643.38L847.245 643.38L847.245 213.99L872.4 213.99L872.4 643.38ZM834.375 643.38L813.315 643.38L813.315 213.99L834.375 213.99L834.375 643.38ZM798.105 643.38L777.63 643.38L777.63 213.99L798.105 213.99L798.105 643.38ZM758.91 643.38L744.908 643.38C744.7 643.38 744.492 643.379 744.285 643.378L744.285 213.992C744.493 213.991 744.7 213.99 744.908 213.99L758.91 213.99L758.91 643.38ZM722.055 640.957C717.659 640.01 713.363 638.796 709.185 637.331L709.185 220.039C713.363 218.574 717.659 217.36 722.055 216.412L722.055 640.957ZM684.615 624.987C681.151 622.648 677.831 620.114 674.67 617.4L674.67 239.969C677.831 237.255 681.151 234.721 684.615 232.383L684.615 624.987ZM646.59 579.873C640.575 566.487 637.23 551.649 637.23 536.032L637.23 321.337C637.23 305.72 640.575 290.882 646.59 277.497L646.59 579.873L646.59 579.873Z" fill="#2C5592"/>
<mask id="mask3_502_469" style="mask-type:alpha" maskUnits="userSpaceOnUse" x="1302" y="214" width="960" height="430">
<path d="M2261.4 214L2261.4 643.39L1861.82 643.39C1802.45 643.39 1754.32 595.329 1754.32 536.043C1754.32 476.756 1706.18 428.695 1646.81 428.695L1517.02 428.695C1398.27 428.695 1302 332.573 1302 214L2261.4 214Z" fill="white"/>
</mask>
<g mask="url(#mask3_502_469)">
<path d="M2261.4 214L2261.4 643.39L1861.82 643.39C1802.45 643.39 1754.32 595.329 1754.32 536.043C1754.32 476.756 1706.18 428.695 1646.81 428.695L1517.02 428.695C1398.27 428.695 1302 332.573 1302 214L2261.4 214Z" fill="#977DF4"/>
</g>
<path fill-rule="evenodd" clip-rule="evenodd" d="M1381.35 1289.22L763.445 1289.22C704.037 1289.22 655.878 1241.03 655.878 1181.58C655.878 1141.95 620.022 1106.07 548.31 1073.94L1473.06 1073.94C1421.17 1081.64 1381.35 1126.37 1381.35 1180.41L1381.35 1289.22Z" fill="#252B42"/>
<mask id="mask4_502_469" style="mask-type:alpha" maskUnits="userSpaceOnUse" x="431" y="1073" width="736" height="217">
<path d="M1166.07 1181.47C1166.07 1240.86 1117.97 1289.01 1058.63 1289.01L539.364 1289.01C480.029 1289.01 431.928 1240.86 431.928 1181.47C431.928 1122.08 480.029 1073.94 539.364 1073.94L1058.63 1073.94C1117.97 1073.94 1166.07 1122.08 1166.07 1181.47Z" fill="white"/>
</mask>
<g mask="url(#mask4_502_469)">
<path d="M1166.07 1181.47C1166.07 1240.86 1117.97 1289.01 1058.63 1289.01L539.364 1289.01C480.029 1289.01 431.928 1240.86 431.928 1181.47C431.928 1122.08 480.029 1073.94 539.364 1073.94L1058.63 1073.94C1117.97 1073.94 1166.07 1122.08 1166.07 1181.47Z" fill="#131726"/>
</g>
<mask id="mask5_502_469" style="mask-type:alpha" maskUnits="userSpaceOnUse" x="1819" y="655" width="409" height="409">
<path d="M1819 859.525C1819 972.437 1910.5 1063.97 2023.38 1063.97C2136.26 1063.97 2227.76 972.437 2227.76 859.525C2227.76 746.613 2136.26 655.08 2023.38 655.08C1910.5 655.08 1819 746.613 1819 859.525Z" fill="white"/>
</mask>
<g mask="url(#mask5_502_469)">
<path d="M1819 859.525C1819 972.437 1910.5 1063.97 2023.38 1063.97C2136.26 1063.97 2227.76 972.437 2227.76 859.525C2227.76 746.613 2136.26 655.08 2023.38 655.08C1910.5 655.08 1819 746.613 1819 859.525Z" fill="#23A6F0"/>
<path fill-rule="evenodd" clip-rule="evenodd" d="M2242.11 1289.93L1020.76 1289.93C961.329 1289.93 913.154 1241.76 913.154 1182.33L913.154 967.127C913.154 907.7 961.329 859.525 1020.76 859.525L2242.11 859.525L2242.11 1289.93Z" fill="#F2F2F2"/>
<path d="M2025.17 1063.97L2025.17 859.525L1677.37 859.525L1677.37 1063.97L2025.17 1063.97Z" fill="#2C5592"/>
</g>
<path d="M922 704.807C922 857.13 1045.44 980.613 1197.72 980.613C1350 980.613 1473.44 857.13 1473.44 704.807C1473.44 552.483 1350 429 1197.72 429C1045.44 429 922 552.483 922 704.807Z" fill="#F2F2F2"/>
<path d="M1915 428.685C1915 474.24 1951.93 511.17 1997.48 511.17C2043.04 511.17 2079.97 474.24 2079.97 428.685C2079.97 383.13 2043.04 346.2 1997.48 346.2C1951.93 346.2 1915 383.13 1915 428.685Z" fill="#2C5592"/>
<path d="M1435.17 1202.06C1435.17 1247.61 1472.1 1284.54 1517.65 1284.54C1563.21 1284.54 1600.14 1247.61 1600.14 1202.06C1600.14 1156.5 1563.21 1119.57 1517.65 1119.57C1472.1 1119.57 1435.17 1156.5 1435.17 1202.06Z" fill="#2C5592"/>
<path d="M1724.16 276C1724.16 292.801 1737.78 306.42 1754.58 306.42C1771.38 306.42 1785 292.801 1785 276C1785 259.2 1771.38 245.58 1754.58 245.58C1737.78 245.58 1724.16 259.2 1724.16 276Z" fill="#2C5592"/>
<path d="M1432.83 307.005C1432.83 329.298 1450.9 347.37 1473.19 347.37C1495.49 347.37 1513.56 329.298 1513.56 307.005C1513.56 284.712 1495.49 266.64 1473.19 266.64C1450.9 266.64 1432.83 284.712 1432.83 307.005Z" fill="#F2F2F2"/>
<g filter="url(#filter2_dddddd_502_469)">
<circle cx="308.376" cy="619.376" r="240.744" stroke="#F8F8FA" stroke-width="109.263"/>
<circle cx="307.813" cy="1095.81" r="39.0405" stroke="#F8F8FA" stroke-width="43.5443"/>
</g>
<g filter="url(#filter3_ddddddd_502_469)">
<line x1="1226" y1="679.004" x2="1226" y2="751.004" stroke="#223232" stroke-width="24"/>
<line x1="1184" y1="679" x2="1184" y2="751" stroke="#223232" stroke-width="24"/>
<circle cx="1184.5" cy="647.5" r="17.5" transform="rotate(-90 1184.5 647.5)" stroke="#223232" stroke-width="12"/>
<circle cx="1225.5" cy="647.5" r="6" transform="rotate(-90 1225.5 647.5)" stroke="#223232" stroke-width="5"/>
</g>
</g>
<defs>
<filter id="filter0_dddddd_502_469" x="0.113075" y="322.042" width="804.752" height="1063.25" filterUnits="userSpaceOnUse" color-interpolation-filters="sRGB">
<feFlood flood-opacity="0" result="BackgroundImageFix"/>
<feColorMatrix in="SourceAlpha" type="matrix" values="0 0 0 0 0 0 0 0 0 0 0 0 0 0 0 0 0 0 127 0" result="hardAlpha"/>
<feOffset dx="1.68728" dy="2.25306"/>
<feGaussianBlur stdDeviation="2.10532"/>
<feColorMatrix type="matrix" values="0 0 0 0 0 0 0 0 0 0 0 0 0 0 0 0 0 0 0.0168519 0"/>
<feBlend mode="normal" in2="BackgroundImageFix" result="effect1_dropShadow_502_469"/>
<feColorMatrix in="SourceAlpha" type="matrix" values="0 0 0 0 0 0 0 0 0 0 0 0 0 0 0 0 0 0 127 0" result="hardAlpha"/>
<feOffset dx="7.42403" dy="9.91346"/>
<feGaussianBlur stdDeviation="4.35926"/>
<feColorMatrix type="matrix" values="0 0 0 0 0 0 0 0 0 0 0 0 0 0 0 0 0 0 0.0274815 0"/>
<feBlend mode="normal" in2="effect1_dropShadow_502_469" result="effect2_dropShadow_502_469"/>
<feColorMatrix in="SourceAlpha" type="matrix" values="0 0 0 0 0 0 0 0 0 0 0 0 0 0 0 0 0 0 127 0" result="hardAlpha"/>
<feOffset dx="18.2226" dy="24.333"/>
<feGaussianBlur stdDeviation="8.69375"/>
<feColorMatrix type="matrix" values="0 0 0 0 0 0 0 0 0 0 0 0 0 0 0 0 0 0 0.035 0"/>
<feBlend mode="normal" in2="effect2_dropShadow_502_469" result="effect3_dropShadow_502_469"/>
<feColorMatrix in="SourceAlpha" type="matrix" values="0 0 0 0 0 0 0 0 0 0 0 0 0 0 0 0 0 0 127 0" result="hardAlpha"/>
<feOffset dx="35.0954" dy="46.8636"/>
<feGaussianBlur stdDeviation="17.0407"/>
<feColorMatrix type="matrix" values="0 0 0 0 0 0 0 0 0 0 0 0 0 0 0 0 0 0 0.0425185 0"/>
<feBlend mode="normal" in2="effect3_dropShadow_502_469" result="effect4_dropShadow_502_469"/>
<feColorMatrix in="SourceAlpha" type="matrix" values="0 0 0 0 0 0 0 0 0 0 0 0 0 0 0 0 0 0 127 0" result="hardAlpha"/>
<feOffset dx="59.0548" dy="78.857"/>
<feGaussianBlur stdDeviation="31.3322"/>
<feColorMatrix type="matrix" values="0 0 0 0 0 0 0 0 0 0 0 0 0 0 0 0 0 0 0.0531481 0"/>
<feBlend mode="normal" in2="effect4_dropShadow_502_469" result="effect5_dropShadow_502_469"/>
<feColorMatrix in="SourceAlpha" type="matrix" values="0 0 0 0 0 0 0 0 0 0 0 0 0 0 0 0 0 0 127 0" result="hardAlpha"/>
<feOffset dx="91.1131" dy="121.665"/>
<feGaussianBlur stdDeviation="53.5"/>
<feColorMatrix type="matrix" values="0 0 0 0 0 0 0 0 0 0 0 0 0 0 0 0 0 0 0.07 0"/>
<feBlend mode="normal" in2="effect5_dropShadow_502_469" result="effect6_dropShadow_502_469"/>
<feBlend mode="normal" in="SourceGraphic" in2="effect6_dropShadow_502_469" result="shape"/>
</filter>
<filter id="filter1_dd_502_469" x="303.569" y="263.565" width="2000" height="1033" filterUnits="userSpaceOnUse" color-interpolation-filters="sRGB">
<feFlood flood-opacity="0" result="BackgroundImageFix"/>
<feColorMatrix in="SourceAlpha" type="matrix" values="0 0 0 0 0 0 0 0 0 0 0 0 0 0 0 0 0 0 127 0" result="hardAlpha"/>
<feOffset dx="0.658687" dy="0.510466"/>
<feGaussianBlur stdDeviation="0.787037"/>
<feColorMatrix type="matrix" values="0 0 0 0 0 0 0 0 0 0 0 0 0 0 0 0 0 0 0.0168519 0"/>
<feBlend mode="normal" in2="BackgroundImageFix" result="effect1_dropShadow_502_469"/>
<feColorMatrix in="SourceAlpha" type="matrix" values="0 0 0 0 0 0 0 0 0 0 0 0 0 0 0 0 0 0 127 0" result="hardAlpha"/>
<feOffset dx="35.5691" dy="27.5652"/>
<feGaussianBlur stdDeviation="20"/>
<feColorMatrix type="matrix" values="0 0 0 0 0 0 0 0 0 0 0 0 0 0 0 0 0 0 0.07 0"/>
<feBlend mode="normal" in2="effect1_dropShadow_502_469" result="effect2_dropShadow_502_469"/>
<feBlend mode="normal" in="SourceGraphic" in2="effect2_dropShadow_502_469" result="shape"/>
</filter>
<filter id="filter2_dddddd_502_469" x="-2.88692" y="322.042" width="804.752" height="1063.25" filterUnits="userSpaceOnUse" color-interpolation-filters="sRGB">
<feFlood flood-opacity="0" result="BackgroundImageFix"/>
<feColorMatrix in="SourceAlpha" type="matrix" values="0 0 0 0 0 0 0 0 0 0 0 0 0 0 0 0 0 0 127 0" result="hardAlpha"/>
<feOffset dx="1.68728" dy="2.25306"/>
<feGaussianBlur stdDeviation="2.10532"/>
<feColorMatrix type="matrix" values="0 0 0 0 0 0 0 0 0 0 0 0 0 0 0 0 0 0 0.0168519 0"/>
<feBlend mode="normal" in2="BackgroundImageFix" result="effect1_dropShadow_502_469"/>
<feColorMatrix in="SourceAlpha" type="matrix" values="0 0 0 0 0 0 0 0 0 0 0 0 0 0 0 0 0 0 127 0" result="hardAlpha"/>
<feOffset dx="7.42403" dy="9.91346"/>
<feGaussianBlur stdDeviation="4.35926"/>
<feColorMatrix type="matrix" values="0 0 0 0 0 0 0 0 0 0 0 0 0 0 0 0 0 0 0.0274815 0"/>
<feBlend mode="normal" in2="effect1_dropShadow_502_469" result="effect2_dropShadow_502_469"/>
<feColorMatrix in="SourceAlpha" type="matrix" values="0 0 0 0 0 0 0 0 0 0 0 0 0 0 0 0 0 0 127 0" result="hardAlpha"/>
<feOffset dx="18.2226" dy="24.333"/>
<feGaussianBlur stdDeviation="8.69375"/>
<feColorMatrix type="matrix" values="0 0 0 0 0 0 0 0 0 0 0 0 0 0 0 0 0 0 0.035 0"/>
<feBlend mode="normal" in2="effect2_dropShadow_502_469" result="effect3_dropShadow_502_469"/>
<feColorMatrix in="SourceAlpha" type="matrix" values="0 0 0 0 0 0 0 0 0 0 0 0 0 0 0 0 0 0 127 0" result="hardAlpha"/>
<feOffset dx="35.0954" dy="46.8636"/>
<feGaussianBlur stdDeviation="17.0407"/>
<feColorMatrix type="matrix" values="0 0 0 0 0 0 0 0 0 0 0 0 0 0 0 0 0 0 0.0425185 0"/>
<feBlend mode="normal" in2="effect3_dropShadow_502_469" result="effect4_dropShadow_502_469"/>
<feColorMatrix in="SourceAlpha" type="matrix" values="0 0 0 0 0 0 0 0 0 0 0 0 0 0 0 0 0 0 127 0" result="hardAlpha"/>
<feOffset dx="59.0548" dy="78.857"/>
<feGaussianBlur stdDeviation="31.3322"/>
<feColorMatrix type="matrix" values="0 0 0 0 0 0 0 0 0 0 0 0 0 0 0 0 0 0 0.0531481 0"/>
<feBlend mode="normal" in2="effect4_dropShadow_502_469" result="effect5_dropShadow_502_469"/>
<feColorMatrix in="SourceAlpha" type="matrix" values="0 0 0 0 0 0 0 0 0 0 0 0 0 0 0 0 0 0 127 0" result="hardAlpha"/>
<feOffset dx="91.1131" dy="121.665"/>
<feGaussianBlur stdDeviation="53.5"/>
<feColorMatrix type="matrix" values="0 0 0 0 0 0 0 0 0 0 0 0 0 0 0 0 0 0 0.07 0"/>
<feBlend mode="normal" in2="effect5_dropShadow_502_469" result="effect6_dropShadow_502_469"/>
<feBlend mode="normal" in="SourceGraphic" in2="effect6_dropShadow_502_469" result="shape"/>
</filter>
<filter id="filter3_ddddddd_502_469" x="1159.33" y="622.565" width="239.219" height="306.629" filterUnits="userSpaceOnUse" color-interpolation-filters="sRGB">
<feFlood flood-opacity="0" result="BackgroundImageFix"/>
<feColorMatrix in="SourceAlpha" type="matrix" values="0 0 0 0 0 0 0 0 0 0 0 0 0 0 0 0 0 0 127 0" result="hardAlpha"/>
<feOffset dx="1.08021" dy="1.31683"/>
<feGaussianBlur stdDeviation="1.37609"/>
<feColorMatrix type="matrix" values="0 0 0 0 0 0 0 0 0 0 0 0 0 0 0 0 0 0 0.014898 0"/>
<feBlend mode="normal" in2="BackgroundImageFix" result="effect1_dropShadow_502_469"/>
<feColorMatrix in="SourceAlpha" type="matrix" values="0 0 0 0 0 0 0 0 0 0 0 0 0 0 0 0 0 0 127 0" result="hardAlpha"/>
<feOffset dx="4.69659" dy="5.72536"/>
<feGaussianBlur stdDeviation="2.68222"/>
<feColorMatrix type="matrix" values="0 0 0 0 0 0 0 0 0 0 0 0 0 0 0 0 0 0 0.024898 0"/>
<feBlend mode="normal" in2="effect1_dropShadow_502_469" result="effect2_dropShadow_502_469"/>
<feColorMatrix in="SourceAlpha" type="matrix" values="0 0 0 0 0 0 0 0 0 0 0 0 0 0 0 0 0 0 127 0" result="hardAlpha"/>
<feOffset dx="11.4127" dy="13.9126"/>
<feGaussianBlur stdDeviation="4.82799"/>
<feColorMatrix type="matrix" values="0 0 0 0 0 0 0 0 0 0 0 0 0 0 0 0 0 0 0.0319592 0"/>
<feBlend mode="normal" in2="effect2_dropShadow_502_469" result="effect3_dropShadow_502_469"/>
<feColorMatrix in="SourceAlpha" type="matrix" values="0 0 0 0 0 0 0 0 0 0 0 0 0 0 0 0 0 0 127 0" result="hardAlpha"/>
<feOffset dx="21.7922" dy="26.5657"/>
<feGaussianBlur stdDeviation="8.72303"/>
<feColorMatrix type="matrix" values="0 0 0 0 0 0 0 0 0 0 0 0 0 0 0 0 0 0 0.0380408 0"/>
<feBlend mode="normal" in2="effect3_dropShadow_502_469" result="effect4_dropShadow_502_469"/>
<feColorMatrix in="SourceAlpha" type="matrix" values="0 0 0 0 0 0 0 0 0 0 0 0 0 0 0 0 0 0 127 0" result="hardAlpha"/>
<feOffset dx="36.3985" dy="44.3716"/>
<feGaussianBlur stdDeviation="15.277"/>
<feColorMatrix type="matrix" values="0 0 0 0 0 0 0 0 0 0 0 0 0 0 0 0 0 0 0.045102 0"/>
<feBlend mode="normal" in2="effect4_dropShadow_502_469" result="effect5_dropShadow_502_469"/>
<feColorMatrix in="SourceAlpha" type="matrix" values="0 0 0 0 0 0 0 0 0 0 0 0 0 0 0 0 0 0 127 0" result="hardAlpha"/>
<feOffset dx="55.7954" dy="68.0173"/>
<feGaussianBlur stdDeviation="25.3994"/>
<feColorMatrix type="matrix" values="0 0 0 0 0 0 0 0 0 0 0 0 0 0 0 0 0 0 0.055102 0"/>
<feBlend mode="normal" in2="effect5_dropShadow_502_469" result="effect6_dropShadow_502_469"/>
<feColorMatrix in="SourceAlpha" type="matrix" values="0 0 0 0 0 0 0 0 0 0 0 0 0 0 0 0 0 0 127 0" result="hardAlpha"/>
<feOffset dx="80.5465" dy="98.19"/>
<feGaussianBlur stdDeviation="40"/>
<feColorMatrix type="matrix" values="0 0 0 0 0 0 0 0 0 0 0 0 0 0 0 0 0 0 0.07 0"/>
<feBlend mode="normal" in2="effect6_dropShadow_502_469" result="effect7_dropShadow_502_469"/>
<feBlend mode="normal" in="SourceGraphic" in2="effect7_dropShadow_502_469" result="shape"/>
</filter>
<clipPath id="clip0_502_469">
<rect width="1920" height="960" fill="white" transform="translate(308 269)"/>
</clipPath>
</defs>
</svg>
