<svg width="118" height="32" viewBox="0 0 118 32" fill="none" xmlns="http://www.w3.org/2000/svg">
<g filter="url(#filter0_d_2_206)">
<path d="M7.512 19.288C6.168 19.288 4.88 19.112 3.648 18.76C2.416 18.392 1.424 17.92 0.672 17.344L1.992 14.416C2.712 14.928 3.56 15.352 4.536 15.688C5.528 16.008 6.528 16.168 7.536 16.168C8.304 16.168 8.92 16.096 9.384 15.952C9.864 15.792 10.216 15.576 10.44 15.304C10.664 15.032 10.776 14.72 10.776 14.368C10.776 13.92 10.6 13.568 10.248 13.312C9.896 13.04 9.432 12.824 8.856 12.664C8.28 12.488 7.64 12.328 6.936 12.184C6.248 12.024 5.552 11.832 4.848 11.608C4.16 11.384 3.528 11.096 2.952 10.744C2.376 10.392 1.904 9.928 1.536 9.352C1.184 8.776 1.008 8.04 1.008 7.144C1.008 6.184 1.264 5.312 1.776 4.528C2.304 3.728 3.088 3.096 4.128 2.632C5.184 2.152 6.504 1.912 8.088 1.912C9.144 1.912 10.184 2.04 11.208 2.296C12.232 2.536 13.136 2.904 13.92 3.4L12.72 6.352C11.936 5.904 11.152 5.576 10.368 5.368C9.584 5.144 8.816 5.032 8.064 5.032C7.312 5.032 6.696 5.12 6.216 5.296C5.736 5.472 5.392 5.704 5.184 5.992C4.976 6.264 4.872 6.584 4.872 6.952C4.872 7.384 5.048 7.736 5.4 8.008C5.752 8.264 6.216 8.472 6.792 8.632C7.368 8.792 8 8.952 8.688 9.112C9.392 9.272 10.088 9.456 10.776 9.664C11.48 9.872 12.12 10.152 12.696 10.504C13.272 10.856 13.736 11.32 14.088 11.896C14.456 12.472 14.64 13.2 14.64 14.08C14.64 15.024 14.376 15.888 13.848 16.672C13.32 17.456 12.528 18.088 11.472 18.568C10.432 19.048 9.112 19.288 7.512 19.288ZM24.9807 5.896C26.0047 5.896 26.9167 6.104 27.7167 6.52C28.5327 6.92 29.1727 7.544 29.6367 8.392C30.1007 9.224 30.3327 10.296 30.3327 11.608V19H26.5887V12.184C26.5887 11.144 26.3567 10.376 25.8927 9.88C25.4447 9.384 24.8047 9.136 23.9727 9.136C23.3807 9.136 22.8447 9.264 22.3647 9.52C21.9007 9.76 21.5327 10.136 21.2607 10.648C21.0047 11.16 20.8767 11.816 20.8767 12.616V19H17.1327V1.192H20.8767V9.664L20.0367 8.584C20.5007 7.72 21.1647 7.056 22.0287 6.592C22.8927 6.128 23.8767 5.896 24.9807 5.896ZM42.2504 19.288C40.9224 19.288 39.6904 19.072 38.5544 18.64C37.4344 18.208 36.4584 17.6 35.6264 16.816C34.8104 16.032 34.1704 15.112 33.7064 14.056C33.2584 13 33.0344 11.848 33.0344 10.6C33.0344 9.352 33.2584 8.2 33.7064 7.144C34.1704 6.088 34.8184 5.168 35.6504 4.384C36.4824 3.6 37.4584 2.992 38.5784 2.56C39.6984 2.128 40.9144 1.912 42.2264 1.912C43.5544 1.912 44.7704 2.128 45.8744 2.56C46.9944 2.992 47.9624 3.6 48.7784 4.384C49.6104 5.168 50.2584 6.088 50.7224 7.144C51.1864 8.184 51.4184 9.336 51.4184 10.6C51.4184 11.848 51.1864 13.008 50.7224 14.08C50.2584 15.136 49.6104 16.056 48.7784 16.84C47.9624 17.608 46.9944 18.208 45.8744 18.64C44.7704 19.072 43.5624 19.288 42.2504 19.288ZM42.2264 15.976C42.9784 15.976 43.6664 15.848 44.2904 15.592C44.9304 15.336 45.4904 14.968 45.9704 14.488C46.4504 14.008 46.8184 13.44 47.0744 12.784C47.3464 12.128 47.4824 11.4 47.4824 10.6C47.4824 9.8 47.3464 9.072 47.0744 8.416C46.8184 7.76 46.4504 7.192 45.9704 6.712C45.5064 6.232 44.9544 5.864 44.3144 5.608C43.6744 5.352 42.9784 5.224 42.2264 5.224C41.4744 5.224 40.7784 5.352 40.1384 5.608C39.5144 5.864 38.9624 6.232 38.4824 6.712C38.0024 7.192 37.6264 7.76 37.3544 8.416C37.0984 9.072 36.9704 9.8 36.9704 10.6C36.9704 11.384 37.0984 12.112 37.3544 12.784C37.6264 13.44 37.9944 14.008 38.4584 14.488C38.9384 14.968 39.4984 15.336 40.1384 15.592C40.7784 15.848 41.4744 15.976 42.2264 15.976ZM61.8084 19.192C60.7204 19.192 59.7684 18.952 58.9524 18.472C58.1364 17.992 57.4964 17.264 57.0324 16.288C56.5844 15.296 56.3604 14.048 56.3604 12.544C56.3604 11.024 56.5764 9.776 57.0084 8.8C57.4404 7.824 58.0644 7.096 58.8804 6.616C59.6964 6.136 60.6724 5.896 61.8084 5.896C63.0244 5.896 64.1124 6.176 65.0724 6.736C66.0484 7.28 66.8164 8.048 67.3764 9.04C67.9524 10.032 68.2404 11.2 68.2404 12.544C68.2404 13.904 67.9524 15.08 67.3764 16.072C66.8164 17.064 66.0484 17.832 65.0724 18.376C64.1124 18.92 63.0244 19.192 61.8084 19.192ZM54.1764 23.656V6.088H57.7524V8.728L57.6804 12.568L57.9204 16.384V23.656H54.1764ZM61.1604 16.12C61.7844 16.12 62.3364 15.976 62.8164 15.688C63.3124 15.4 63.7044 14.992 63.9924 14.464C64.2964 13.92 64.4484 13.28 64.4484 12.544C64.4484 11.792 64.2964 11.152 63.9924 10.624C63.7044 10.096 63.3124 9.688 62.8164 9.4C62.3364 9.112 61.7844 8.968 61.1604 8.968C60.5364 8.968 59.9764 9.112 59.4804 9.4C58.9844 9.688 58.5924 10.096 58.3044 10.624C58.0164 11.152 57.8724 11.792 57.8724 12.544C57.8724 13.28 58.0164 13.92 58.3044 14.464C58.5924 14.992 58.9844 15.4 59.4804 15.688C59.9764 15.976 60.5364 16.12 61.1604 16.12ZM70.0308 19V16.48L80.4228 3.952L80.9028 5.368H70.2228V2.2H84.3588V4.72L73.9908 17.248L73.5108 15.832H84.7188V19H70.0308ZM87.0483 19V6.088H90.7923V19H87.0483ZM88.9203 4.288C88.2323 4.288 87.6723 4.088 87.2403 3.688C86.8083 3.288 86.5923 2.792 86.5923 2.2C86.5923 1.608 86.8083 1.112 87.2403 0.711999C87.6723 0.311999 88.2323 0.111999 88.9203 0.111999C89.6083 0.111999 90.1683 0.303999 90.6003 0.688C91.0323 1.056 91.2483 1.536 91.2483 2.128C91.2483 2.752 91.0323 3.272 90.6003 3.688C90.1843 4.088 89.6243 4.288 88.9203 4.288ZM94.3671 19V1.192H98.1111V19H94.3671ZM109.606 19V16.48L109.366 15.928V11.416C109.366 10.616 109.118 9.992 108.622 9.544C108.142 9.096 107.398 8.872 106.39 8.872C105.702 8.872 105.022 8.984 104.35 9.208C103.694 9.416 103.134 9.704 102.67 10.072L101.326 7.456C102.03 6.96 102.878 6.576 103.87 6.304C104.862 6.032 105.87 5.896 106.894 5.896C108.862 5.896 110.39 6.36 111.478 7.288C112.566 8.216 113.11 9.664 113.11 11.632V19H109.606ZM105.67 19.192C104.662 19.192 103.798 19.024 103.078 18.688C102.358 18.336 101.806 17.864 101.422 17.272C101.038 16.68 100.846 16.016 100.846 15.28C100.846 14.512 101.03 13.84 101.398 13.264C101.782 12.688 102.382 12.24 103.198 11.92C104.014 11.584 105.078 11.416 106.39 11.416H109.822V13.6H106.798C105.918 13.6 105.31 13.744 104.974 14.032C104.654 14.32 104.494 14.68 104.494 15.112C104.494 15.592 104.678 15.976 105.046 16.264C105.43 16.536 105.95 16.672 106.606 16.672C107.23 16.672 107.79 16.528 108.286 16.24C108.782 15.936 109.142 15.496 109.366 14.92L109.942 16.648C109.67 17.48 109.174 18.112 108.454 18.544C107.734 18.976 106.806 19.192 105.67 19.192Z" fill="#252B42"/>
</g>
<defs>
<filter id="filter0_d_2_206" x="-3.32788" y="0.112061" width="120.438" height="31.5439" filterUnits="userSpaceOnUse" color-interpolation-filters="sRGB">
<feFlood flood-opacity="0" result="BackgroundImageFix"/>
<feColorMatrix in="SourceAlpha" type="matrix" values="0 0 0 0 0 0 0 0 0 0 0 0 0 0 0 0 0 0 127 0" result="hardAlpha"/>
<feOffset dy="4"/>
<feGaussianBlur stdDeviation="2"/>
<feComposite in2="hardAlpha" operator="out"/>
<feColorMatrix type="matrix" values="0 0 0 0 0 0 0 0 0 0 0 0 0 0 0 0 0 0 0.25 0"/>
<feBlend mode="normal" in2="BackgroundImageFix" result="effect1_dropShadow_2_206"/>
<feBlend mode="normal" in="SourceGraphic" in2="effect1_dropShadow_2_206" result="shape"/>
</filter>
</defs>
</svg>
