<svg width="15" height="15" viewBox="0 0 15 15" fill="none" xmlns="http://www.w3.org/2000/svg">
<g clip-path="url(#clip0_2_536)">
<g clip-path="url(#clip1_2_536)">
<path fill-rule="evenodd" clip-rule="evenodd" d="M-8.43404 -13.3018C-8.2757 -13.4596 -8.08761 -13.5848 -7.88052 -13.6703C-7.67343 -13.7557 -7.45143 -13.7997 -7.22722 -13.7997C-7.00302 -13.7997 -6.78101 -13.7557 -6.57393 -13.6703C-6.36684 -13.5848 -6.17874 -13.4596 -6.0204 -13.3018L14.4341 7.03538C14.5929 7.19281 14.7188 7.37983 14.8048 7.58572C14.8907 7.79162 14.9349 8.01235 14.9349 8.23527C14.9349 8.45819 14.8907 8.67892 14.8048 8.88482C14.7188 9.09071 14.5929 9.27773 14.4341 9.43516L-6.0204 29.7723C-6.34047 30.0906 -6.77458 30.2693 -7.22722 30.2693C-7.67987 30.2693 -8.11397 30.0906 -8.43404 29.7723C-8.75411 29.4541 -8.93392 29.0225 -8.93392 28.5724C-8.93392 28.1224 -8.75411 27.6908 -8.43404 27.3725L10.8171 8.23527L-8.43404 -10.902C-8.59278 -11.0594 -8.71872 -11.2464 -8.80465 -11.4523C-8.89058 -11.6582 -8.93481 -11.879 -8.93481 -12.1019C-8.93481 -12.3248 -8.89058 -12.5455 -8.80465 -12.7514C-8.71872 -12.9573 -8.59278 -13.1444 -8.43404 -13.3018Z" fill="white"/>
</g>
</g>
<defs>
<clipPath id="clip0_2_536">
<rect width="15" height="15" fill="white"/>
</clipPath>
<clipPath id="clip1_2_536">
<rect width="24" height="44.4706" fill="white" transform="translate(-9 -14)"/>
</clipPath>
</defs>
</svg>
